<?xml version="1.0" encoding="utf-8"?>
<!-- Svg Vector Icons : http://www.onlinewebfonts.com/icon -->
<!DOCTYPE svg PUBLIC "-//W3C//DTD SVG 1.1//EN" "http://www.w3.org/Graphics/SVG/1.1/DTD/svg11.dtd">
<svg version="1.1" xmlns="http://www.w3.org/2000/svg" xmlns:xlink="http://www.w3.org/1999/xlink" x="0px" y="0px" viewBox="0 0 256 256" enable-background="new 0 0 256 256" xml:space="preserve">
<metadata> Svg Vector Icons : http://www.onlinewebfonts.com/icon </metadata>
<g> <path fill="#d8574f" d="M90.9,98.6c-5.3-3.1-10.2-6.9-14.6-11.3C63.1,74.1,54.9,55.8,54.9,35.7c0-3.2,0.2-6.4,0.6-9.5 c0.4-3.2,1-6.3,1.8-9.4c0.5-1.9,2.5-3,4.4-2.5c1.9,0.5,3,2.5,2.5,4.4c-0.7,2.8-1.3,5.6-1.7,8.4c-0.4,2.8-0.5,5.6-0.5,8.6 c0,18.2,7.4,34.7,19.3,46.6c3.5,3.5,7.4,6.6,11.6,9.3L90.9,98.6z M191.7,18.6c-0.5-1.9,0.6-3.8,2.5-4.4c1.9-0.5,3.8,0.6,4.4,2.5 c0.8,3,1.4,6.1,1.9,9.4c0.4,3.2,0.6,6.4,0.6,9.5c0,20.2-8.2,38.4-21.4,51.7c-4.4,4.4-9.3,8.2-14.6,11.3l-2.1-7.1 c4.2-2.6,8.1-5.7,11.6-9.3c11.9-11.9,19.3-28.4,19.3-46.6c0-3-0.2-5.9-0.6-8.6C193,24.2,192.4,21.4,191.7,18.6L191.7,18.6 L191.7,18.6L191.7,18.6z M84.6,119.9l2.6-8.7c-7.3-4-14-9-19.9-14.8c-15.5-15.5-25.1-37-25.1-60.7c0-3,0.1-5.9,0.4-8.6 c0.3-2.9,0.7-5.7,1.3-8.5c0.5-2.4-1.1-4.7-3.5-5.2s-4.7,1.1-5.2,3.5c-0.6,3.1-1.1,6.2-1.4,9.4c-0.3,3.2-0.5,6.4-0.5,9.5 c0,26.2,10.6,49.9,27.8,67C67.9,109.6,75.9,115.4,84.6,119.9z M212.2,18.6L212.2,18.6c0.6,2.8,1,5.6,1.3,8.5 c0.3,2.7,0.4,5.6,0.4,8.6c0,23.7-9.6,45.2-25.1,60.7c-5.9,5.9-12.6,10.9-19.9,14.8l2.6,8.7c8.7-4.5,16.7-10.3,23.6-17.3 c17.2-17.1,27.8-40.8,27.8-67c0-3.1-0.2-6.3-0.5-9.5c-0.3-3.1-0.8-6.3-1.4-9.4c-0.5-2.4-2.8-4-5.2-3.5 C213.2,13.8,211.7,16.2,212.2,18.6L212.2,18.6z M77.9,142.6L77.9,142.6c1-3.5,2-6.9,3.1-10.4c-10.8-5.2-20.5-12.2-28.9-20.6 C32.7,92.1,20.7,65.3,20.7,35.7c0-2.9,0.1-5.8,0.3-8.6c0.2-3,0.6-5.8,1-8.6c0.5-2.9-1.5-5.6-4.4-6.1c-2.9-0.5-5.6,1.5-6.1,4.4 c-0.5,3.2-0.9,6.3-1.1,9.4c-0.2,3.1-0.4,6.3-0.4,9.4c0,32.6,13.2,62.1,34.6,83.4C54.2,128.7,65.5,136.7,77.9,142.6z M234,18.5 L234,18.5c0.4,2.7,0.8,5.6,1,8.6c0.2,2.9,0.3,5.7,0.3,8.6c0,29.6-12,56.5-31.4,75.9c-8.4,8.4-18.1,15.4-28.9,20.6 c1,3.5,2,6.9,3.1,10.4c12.5-5.9,23.8-13.8,33.4-23.4C232.8,97.8,246,68.3,246,35.7c0-3.1-0.1-6.3-0.4-9.4c-0.2-3.1-0.6-6.2-1.1-9.4 c-0.5-2.9-3.2-4.9-6.1-4.4C235.5,12.9,233.5,15.6,234,18.5L234,18.5z M134.7,45.3c3-2.1,5-5.7,5-9.6c0-6.5-5.3-11.8-11.8-11.8 c-6.5,0-11.8,5.3-11.8,11.8c0,4,2,7.5,5,9.6c-18.1,63-37.7,126.4-55.4,191.6c-0.5,1.6-0.1,3.3,0.9,4.6c1,1.4,2.5,2.1,4.2,2.1H72 c2.4,0,4.5-1.6,5.1-3.9l2.5-9.4L128,205l48.4,25.3l2.5,9.4c0.6,2.3,2.7,3.9,5.1,3.9h1.1c1.7,0,3.2-0.7,4.2-2.1c1-1.4,1.3-3,0.9-4.6 C172.4,171.7,152.8,108.4,134.7,45.3L134.7,45.3z M95.5,179.1l32.5-18.8l32.5,18.8l-32.5,17L95.5,179.1z M105.3,138l22.8-17.9 l22.7,17.9L128,151.1L105.3,138z M114.8,99.5L128,49.7l13.2,50L128.1,110L114.8,99.5z M153.6,145.5l6.5,24.2l-24.2-14L153.6,145.5z  M143.6,107.9l4.8,18L134.5,115L143.6,107.9z M164.5,185.9l9.1,34.1l-37.1-19.4L164.5,185.9L164.5,185.9z M91.5,185.9l27.9,14.6 L82.4,220L91.5,185.9z M102.4,145.5l17.7,10.2l-24.2,14L102.4,145.5z M112.5,107.8l9.2,7.2l-14.1,11.1L112.5,107.8z"/></g>
</svg>